<mxfile host="Electron" agent="Mozilla/5.0 (X11; Linux x86_64) AppleWebKit/537.36 (KHTML, like Gecko) draw.io/26.0.16 Chrome/132.0.6834.196 Electron/34.2.0 Safari/537.36" version="26.0.16">
  <diagram name="Page-1" id="avC4GRahSReMRkT5Islj">
    <mxGraphModel dx="1426" dy="830" grid="1" gridSize="10" guides="1" tooltips="1" connect="1" arrows="1" fold="1" page="1" pageScale="1" pageWidth="827" pageHeight="1169" background="none" math="0" shadow="1">
      <root>
        <mxCell id="0" />
        <mxCell id="1" parent="0" />
        <mxCell id="pZv4tqtTiCJTw1ml8t5o-15" style="edgeStyle=orthogonalEdgeStyle;rounded=1;orthogonalLoop=1;jettySize=auto;html=1;exitX=1;exitY=0.5;exitDx=0;exitDy=0;entryX=1;entryY=0.5;entryDx=0;entryDy=0;fontSize=15;labelBorderColor=none;textShadow=0;strokeWidth=2;shadow=0;swimlaneLine=1;fillColor=#dae8fc;strokeColor=#6c8ebf;" edge="1" parent="1" source="pZv4tqtTiCJTw1ml8t5o-1" target="pZv4tqtTiCJTw1ml8t5o-9">
          <mxGeometry relative="1" as="geometry">
            <Array as="points">
              <mxPoint x="780" y="50" />
              <mxPoint x="780" y="190" />
            </Array>
          </mxGeometry>
        </mxCell>
        <mxCell id="pZv4tqtTiCJTw1ml8t5o-16" style="edgeStyle=orthogonalEdgeStyle;rounded=1;orthogonalLoop=1;jettySize=auto;html=1;exitX=0.5;exitY=1;exitDx=0;exitDy=0;entryX=0;entryY=0.5;entryDx=0;entryDy=0;fontSize=15;labelBorderColor=none;textShadow=0;strokeWidth=2;shadow=0;swimlaneLine=1;fillColor=#dae8fc;strokeColor=#6c8ebf;" edge="1" parent="1" source="pZv4tqtTiCJTw1ml8t5o-1" target="pZv4tqtTiCJTw1ml8t5o-10">
          <mxGeometry relative="1" as="geometry" />
        </mxCell>
        <mxCell id="pZv4tqtTiCJTw1ml8t5o-1" value="Data Preprocessing" style="rounded=1;whiteSpace=wrap;html=1;fontSize=15;labelBorderColor=none;textShadow=0;strokeWidth=2;shadow=0;swimlaneLine=1;fillColor=#dae8fc;strokeColor=#6c8ebf;" vertex="1" parent="1">
          <mxGeometry x="360" y="20" width="120" height="60" as="geometry" />
        </mxCell>
        <mxCell id="pZv4tqtTiCJTw1ml8t5o-3" value="Work Stream 1 Regression" style="swimlane;whiteSpace=wrap;html=1;rounded=1;fontSize=15;labelBorderColor=none;textShadow=0;strokeWidth=2;shadow=0;swimlaneLine=1;fillColor=#dae8fc;strokeColor=#6c8ebf;" vertex="1" parent="1">
          <mxGeometry x="80" y="120" width="320" height="200" as="geometry" />
        </mxCell>
        <mxCell id="pZv4tqtTiCJTw1ml8t5o-14" style="edgeStyle=orthogonalEdgeStyle;rounded=1;orthogonalLoop=1;jettySize=auto;html=1;exitX=1;exitY=0.5;exitDx=0;exitDy=0;exitPerimeter=0;entryX=0;entryY=0.5;entryDx=0;entryDy=0;fontSize=15;labelBorderColor=none;textShadow=0;strokeWidth=2;shadow=0;swimlaneLine=1;fillColor=#dae8fc;strokeColor=#6c8ebf;" edge="1" parent="pZv4tqtTiCJTw1ml8t5o-3" source="pZv4tqtTiCJTw1ml8t5o-7" target="pZv4tqtTiCJTw1ml8t5o-8">
          <mxGeometry relative="1" as="geometry" />
        </mxCell>
        <mxCell id="pZv4tqtTiCJTw1ml8t5o-7" value="Regression&lt;div&gt;Models&lt;/div&gt;" style="strokeWidth=2;html=1;shape=mxgraph.flowchart.multi-document;whiteSpace=wrap;rounded=1;fontSize=15;labelBorderColor=none;textShadow=0;shadow=0;swimlaneLine=1;fillColor=#dae8fc;strokeColor=#6c8ebf;" vertex="1" parent="pZv4tqtTiCJTw1ml8t5o-3">
          <mxGeometry x="20" y="40" width="128" height="60" as="geometry" />
        </mxCell>
        <mxCell id="pZv4tqtTiCJTw1ml8t5o-8" value="Evaluation and&lt;div&gt;Analysis&lt;/div&gt;" style="rounded=1;whiteSpace=wrap;html=1;fontSize=15;labelBorderColor=none;textShadow=0;strokeWidth=2;shadow=0;swimlaneLine=1;fillColor=#dae8fc;strokeColor=#6c8ebf;" vertex="1" parent="pZv4tqtTiCJTw1ml8t5o-3">
          <mxGeometry x="180" y="40" width="120" height="60" as="geometry" />
        </mxCell>
        <mxCell id="pZv4tqtTiCJTw1ml8t5o-20" value="Benchmark&lt;div&gt;Manufactures&lt;/div&gt;" style="rounded=1;whiteSpace=wrap;html=1;fontSize=15;labelBorderColor=none;textShadow=0;strokeWidth=2;shadow=0;swimlaneLine=1;fillColor=#dae8fc;strokeColor=#6c8ebf;" vertex="1" parent="pZv4tqtTiCJTw1ml8t5o-3">
          <mxGeometry x="180" y="130" width="120" height="60" as="geometry" />
        </mxCell>
        <mxCell id="pZv4tqtTiCJTw1ml8t5o-22" style="edgeStyle=orthogonalEdgeStyle;rounded=1;orthogonalLoop=1;jettySize=auto;html=1;entryX=0.5;entryY=0;entryDx=0;entryDy=0;fontSize=15;labelBorderColor=none;textShadow=0;strokeWidth=2;shadow=0;swimlaneLine=1;fillColor=#dae8fc;strokeColor=#6c8ebf;" edge="1" parent="pZv4tqtTiCJTw1ml8t5o-3" source="pZv4tqtTiCJTw1ml8t5o-8" target="pZv4tqtTiCJTw1ml8t5o-20">
          <mxGeometry relative="1" as="geometry">
            <mxPoint x="110" y="170" as="sourcePoint" />
            <mxPoint x="190" y="80" as="targetPoint" />
          </mxGeometry>
        </mxCell>
        <mxCell id="pZv4tqtTiCJTw1ml8t5o-5" value="Work Stream 2 Clustering and Classification" style="swimlane;whiteSpace=wrap;html=1;rounded=1;fontSize=15;labelBorderColor=none;textShadow=0;strokeWidth=2;shadow=0;swimlaneLine=1;fillColor=#dae8fc;strokeColor=#6c8ebf;" vertex="1" parent="1">
          <mxGeometry x="440" y="120" width="320" height="200" as="geometry" />
        </mxCell>
        <mxCell id="pZv4tqtTiCJTw1ml8t5o-17" style="edgeStyle=orthogonalEdgeStyle;rounded=1;orthogonalLoop=1;jettySize=auto;html=1;exitX=0;exitY=0.5;exitDx=0;exitDy=0;entryX=1;entryY=0.5;entryDx=0;entryDy=0;fontSize=15;labelBorderColor=none;textShadow=0;strokeWidth=2;shadow=0;swimlaneLine=1;fillColor=#dae8fc;strokeColor=#6c8ebf;" edge="1" parent="pZv4tqtTiCJTw1ml8t5o-5" source="pZv4tqtTiCJTw1ml8t5o-9" target="pZv4tqtTiCJTw1ml8t5o-10">
          <mxGeometry relative="1" as="geometry" />
        </mxCell>
        <mxCell id="pZv4tqtTiCJTw1ml8t5o-9" value="Clustering" style="rounded=1;whiteSpace=wrap;html=1;fontSize=15;labelBorderColor=none;textShadow=0;strokeWidth=2;shadow=0;swimlaneLine=1;fillColor=#dae8fc;strokeColor=#6c8ebf;" vertex="1" parent="pZv4tqtTiCJTw1ml8t5o-5">
          <mxGeometry x="180" y="40" width="120" height="60" as="geometry" />
        </mxCell>
        <mxCell id="pZv4tqtTiCJTw1ml8t5o-10" value="Label Data Using Clusters" style="rounded=1;whiteSpace=wrap;html=1;fontSize=15;labelBorderColor=none;textShadow=0;strokeWidth=2;shadow=0;swimlaneLine=1;fillColor=#dae8fc;strokeColor=#6c8ebf;" vertex="1" parent="pZv4tqtTiCJTw1ml8t5o-5">
          <mxGeometry x="20" y="40" width="120" height="60" as="geometry" />
        </mxCell>
        <mxCell id="pZv4tqtTiCJTw1ml8t5o-19" style="edgeStyle=orthogonalEdgeStyle;rounded=1;orthogonalLoop=1;jettySize=auto;html=1;exitX=1;exitY=0.5;exitDx=0;exitDy=0;exitPerimeter=0;entryX=0;entryY=0.5;entryDx=0;entryDy=0;fontSize=15;labelBorderColor=none;textShadow=0;strokeWidth=2;shadow=0;swimlaneLine=1;fillColor=#dae8fc;strokeColor=#6c8ebf;" edge="1" parent="pZv4tqtTiCJTw1ml8t5o-5" source="pZv4tqtTiCJTw1ml8t5o-11" target="pZv4tqtTiCJTw1ml8t5o-12">
          <mxGeometry relative="1" as="geometry" />
        </mxCell>
        <mxCell id="pZv4tqtTiCJTw1ml8t5o-11" value="Classification&lt;div&gt;Models&lt;/div&gt;" style="strokeWidth=2;html=1;shape=mxgraph.flowchart.multi-document;whiteSpace=wrap;rounded=1;fontSize=15;labelBorderColor=none;textShadow=0;shadow=0;swimlaneLine=1;fillColor=#dae8fc;strokeColor=#6c8ebf;" vertex="1" parent="pZv4tqtTiCJTw1ml8t5o-5">
          <mxGeometry x="12" y="130" width="128" height="60" as="geometry" />
        </mxCell>
        <mxCell id="pZv4tqtTiCJTw1ml8t5o-12" value="Evaluation and&lt;div&gt;Analysis&lt;/div&gt;" style="rounded=1;whiteSpace=wrap;html=1;fontSize=15;labelBorderColor=none;textShadow=0;strokeWidth=2;shadow=0;swimlaneLine=1;fillColor=#dae8fc;strokeColor=#6c8ebf;" vertex="1" parent="pZv4tqtTiCJTw1ml8t5o-5">
          <mxGeometry x="180" y="130" width="120" height="60" as="geometry" />
        </mxCell>
        <mxCell id="pZv4tqtTiCJTw1ml8t5o-18" style="edgeStyle=orthogonalEdgeStyle;rounded=1;orthogonalLoop=1;jettySize=auto;html=1;exitX=0.5;exitY=1;exitDx=0;exitDy=0;entryX=0.5;entryY=0;entryDx=0;entryDy=0;entryPerimeter=0;fontSize=15;labelBorderColor=none;textShadow=0;strokeWidth=2;shadow=0;swimlaneLine=1;fillColor=#dae8fc;strokeColor=#6c8ebf;" edge="1" parent="pZv4tqtTiCJTw1ml8t5o-5" source="pZv4tqtTiCJTw1ml8t5o-10" target="pZv4tqtTiCJTw1ml8t5o-11">
          <mxGeometry relative="1" as="geometry" />
        </mxCell>
        <mxCell id="pZv4tqtTiCJTw1ml8t5o-13" style="edgeStyle=orthogonalEdgeStyle;rounded=1;orthogonalLoop=1;jettySize=auto;html=1;exitX=0;exitY=0.5;exitDx=0;exitDy=0;entryX=0;entryY=0.5;entryDx=0;entryDy=0;entryPerimeter=0;fontSize=15;labelBorderColor=none;textShadow=0;strokeWidth=2;shadow=0;swimlaneLine=1;fillColor=#dae8fc;strokeColor=#6c8ebf;" edge="1" parent="1" source="pZv4tqtTiCJTw1ml8t5o-1" target="pZv4tqtTiCJTw1ml8t5o-7">
          <mxGeometry relative="1" as="geometry">
            <Array as="points">
              <mxPoint x="60" y="50" />
              <mxPoint x="60" y="200" />
            </Array>
          </mxGeometry>
        </mxCell>
      </root>
    </mxGraphModel>
  </diagram>
</mxfile>
